<svg width="24" height="24" viewBox="0 0 24 24" fill="none" xmlns="http://www.w3.org/2000/svg">
<path d="M11.6723 19.9205L11.6658 19.9178L11.6455 19.9071C11.5267 19.8442 11.4089 19.7796 11.292 19.7134C9.8869 18.9093 8.57379 17.9648 7.37446 16.8955C5.25046 14.987 3 12.1549 3 8.66685C3 6.06412 5.27446 4.00006 8.01969 4.00006C8.78285 3.99646 9.53703 4.15859 10.2261 4.47439C10.9153 4.79019 11.5216 5.25153 12 5.82411C12.4785 5.25142 13.085 4.79 13.7743 4.4742C14.4636 4.15839 15.2179 3.99633 15.9812 4.00006C18.7255 4.00006 21 6.06412 21 8.66685C21 12.1558 18.7495 14.9879 16.6255 16.8946C15.4262 17.964 14.1131 18.9085 12.708 19.7125C12.5911 19.779 12.4733 19.8439 12.3545 19.9071L12.3342 19.9178L12.3277 19.9214L12.3249 19.9222C12.2248 19.9733 12.1133 20 12 20C11.8867 20 11.7752 19.9733 11.6751 19.9222L11.6723 19.9205Z" fill="black"/>
</svg>
